<svg width="543" height="664" viewBox="0 0 543 664" fill="none" xmlns="http://www.w3.org/2000/svg">
<path d="M387.735 402.644L387.686 402.62L387.634 402.601L381.718 400.477L381.38 401.418L369.548 397.17L369.886 396.228L358.054 391.98L357.716 392.921L345.884 388.672L346.222 387.731L340.306 385.607C339.004 385.139 337.692 384.699 336.373 384.285L336.074 385.239C333.46 384.42 330.814 383.709 328.141 383.107L328.361 382.132C327.012 381.828 325.657 381.552 324.296 381.303L318.366 380.222L318.187 381.206L313.7 380.387V365.036C316.405 364.14 319.075 363.156 321.71 362.088L322.086 363.014C326.561 361.199 330.935 359.142 335.2 356.853L334.727 355.972C338.937 353.713 343.04 351.228 347.03 348.528L347.59 349.356C351.565 346.666 355.427 343.766 359.171 340.665L358.533 339.895C362.199 336.859 365.751 333.629 369.182 330.217L369.887 330.926C373.277 327.555 376.549 324.008 379.698 320.296L378.935 319.649C382.006 316.028 384.96 312.247 387.79 308.317L388.602 308.901C391.393 305.025 394.065 301.004 396.611 296.849L395.759 296.327C398.238 292.281 400.598 288.107 402.834 283.813L403.721 284.274C405.925 280.042 408.009 275.693 409.968 271.237L409.053 270.835C410.964 266.487 412.756 262.037 414.424 257.491L415.363 257.835C417.007 253.356 418.531 248.784 419.931 244.128L418.974 243.84C420.342 239.29 421.592 234.658 422.719 229.951L423.691 230.184C424.803 225.541 425.796 220.826 426.666 216.045L425.682 215.866C426.533 211.19 427.266 206.451 427.877 201.655L428.869 201.782C429.473 197.042 429.959 192.248 430.324 187.403L429.327 187.328C429.683 182.588 429.923 177.8 430.043 172.969L431.043 172.994C431.102 170.593 431.132 168.182 431.132 165.762C431.132 163.317 431.102 160.901 431.041 158.514L430.041 158.54C429.917 153.643 429.665 148.869 429.289 144.218L430.286 144.138C429.888 139.216 429.352 134.429 428.682 129.776L427.693 129.919C426.994 125.065 426.149 120.359 425.162 115.8L426.139 115.588C425.095 110.764 423.893 106.101 422.539 101.597L421.581 101.885C420.168 97.1872 418.589 92.6656 416.85 88.3176L417.778 87.9462C415.95 83.3762 413.946 78.9954 411.772 74.8018L410.884 75.2619C408.641 70.9342 406.217 66.8085 403.621 62.8821L404.456 62.3306C401.758 58.2503 398.874 54.3829 395.815 50.7257L395.048 51.3673C391.949 47.6627 388.668 44.176 385.215 40.9042L385.903 40.1783C382.388 36.8477 378.697 33.7381 374.838 30.8462L374.239 31.6464C370.415 28.7807 366.427 26.1302 362.283 23.6918L362.79 22.83C358.659 20.3992 354.376 18.1782 349.95 16.1636L349.536 17.0737C345.222 15.11 340.771 13.3432 336.191 11.7704L336.516 10.8246C332.016 9.27908 327.394 7.92015 322.659 6.74483L322.418 7.71538C317.836 6.578 313.146 5.61323 308.355 4.81853L308.519 3.83201C303.839 3.0556 299.065 2.44089 294.204 1.98534L294.111 2.98097C289.41 2.54035 284.626 2.24922 279.765 2.10545L279.795 1.10589C277.406 1.03521 274.998 1 272.573 1C270.135 1 267.712 1.03561 265.305 1.10711L265.335 2.10667C260.45 2.25181 255.634 2.54545 250.895 2.98973L250.802 1.9941C245.915 2.4522 241.11 3.06984 236.392 3.84954L236.555 4.83615C231.738 5.63227 227.015 6.59801 222.395 7.7359L222.156 6.76492C217.393 7.93791 212.737 9.29316 208.198 10.8336L208.519 11.7806C203.907 13.3457 199.418 15.1027 195.061 17.0545L194.652 16.1419C190.188 18.1417 185.86 20.3452 181.681 22.7555L182.18 23.6218C177.987 26.0399 173.945 28.6672 170.064 31.5068L169.474 30.6998C165.556 33.5667 161.801 36.6489 158.22 39.9493L158.898 40.6846C155.374 43.9328 152.02 47.3939 148.847 51.071L148.09 50.4177C144.951 54.0555 141.989 57.9026 139.213 61.9618L140.038 62.5263C137.36 66.4422 134.856 70.5574 132.536 74.8748L131.655 74.4014C129.402 78.5948 127.321 82.9763 125.421 87.5481L126.344 87.9319C124.533 92.2891 122.887 96.8216 121.413 101.531L120.459 101.233C119.044 105.752 117.788 110.432 116.696 115.275L117.671 115.495C116.638 120.079 115.751 124.811 115.018 129.693L114.029 129.544C113.326 134.224 112.764 139.04 112.346 143.992L113.342 144.076C112.948 148.757 112.683 153.562 112.551 158.492L111.552 158.466C111.488 160.868 111.456 163.3 111.456 165.762C111.456 168.195 111.487 170.619 111.55 173.033L112.549 173.007C112.675 177.863 112.926 182.676 113.3 187.44L112.303 187.519C112.685 192.387 113.194 197.205 113.826 201.967L114.817 201.835C115.457 206.652 116.222 211.411 117.111 216.106L116.128 216.292C117.036 221.091 118.071 225.824 119.23 230.484L120.2 230.243C121.374 234.962 122.674 239.605 124.096 244.167L123.141 244.464C124.596 249.129 126.177 253.709 127.882 258.196L128.817 257.841C130.544 262.389 132.398 266.84 134.373 271.188L133.463 271.602C135.486 276.055 137.636 280.4 139.907 284.63L140.788 284.156C143.09 288.441 145.516 292.606 148.062 296.641L147.216 297.175C149.829 301.316 152.567 305.323 155.424 309.186L156.228 308.591C159.122 312.504 162.139 316.267 165.272 319.872L164.518 320.528C167.726 324.219 171.055 327.745 174.501 331.097L175.198 330.38C178.684 333.771 182.288 336.981 186.003 339.999L185.372 340.776C189.163 343.856 193.07 346.739 197.085 349.412L197.64 348.58C201.671 351.265 205.812 353.737 210.055 355.984L209.587 356.868C213.887 359.146 218.292 361.196 222.794 363.005L223.166 362.077C225.892 363.172 228.652 364.178 231.446 365.092V377.513L223.759 379.064L223.957 380.044L211.659 382.525L211.461 381.544L205.313 382.785L205.252 382.797L205.193 382.817L198.598 385.023L198.915 385.972L185.725 390.385L185.408 389.437L172.218 393.85L172.535 394.799L159.345 399.212L159.027 398.264L152.432 400.471C148.141 401.907 143.967 403.824 139.96 406.199L132.957 410.35L133.467 411.21L119.459 419.512L118.95 418.651L111.946 422.802C110.481 423.67 109.041 424.598 107.629 425.583L108.201 426.403C105.47 428.308 102.842 430.433 100.332 432.763L99.6517 432.03C98.4084 433.185 97.1943 434.389 96.0113 435.641L90.2705 441.716L90.9974 442.403L79.5158 454.555L78.7889 453.868L73.0481 459.943C72.0308 461.02 71.0381 462.131 70.0711 463.273L70.8344 463.919C68.9557 466.139 67.1742 468.484 65.4977 470.943L64.6715 470.379C63.8383 471.601 63.031 472.851 62.2504 474.127L57.4687 481.942L58.3218 482.464L48.7585 498.096L47.9055 497.574L43.1238 505.389C42.3035 506.73 41.5139 508.098 40.7558 509.492L41.6343 509.97C40.1553 512.688 38.797 515.506 37.5655 518.409L36.6449 518.019C36.0317 519.465 35.4497 520.932 34.8996 522.418L31.3953 531.887L32.3331 532.234L25.3244 551.171L24.3866 550.824L20.8823 560.293L20.8699 560.326L20.86 560.36L18.5525 568.288L19.5126 568.568L14.8977 584.424L13.9375 584.144L9.32253 600.001L10.2827 600.28L5.66772 616.136L4.70756 615.857L2.40007 623.785C2.16637 624.588 1.96153 625.402 1.78587 626.224L2.76381 626.433C2.42545 628.017 2.19822 629.635 2.08469 631.268L1.0871 631.198C1.02914 632.032 1 632.87 1 633.709C1 637.291 1.51989 640.726 2.47338 643.903L3.43119 643.616C5.52243 650.584 9.75595 656.251 15.1332 659.37L14.6314 660.235C17.6821 662.005 21.0977 663 24.7066 663H32.3932V662H47.7664V663H63.1396V662H78.5128V663H93.886V662H109.259V663H124.632V662H140.006V663H155.379V662H170.752V663H186.125V662H201.498V663H216.872V662H232.245V663H247.618V662H262.991V663H278.364V662H293.738V663H309.111V662H324.484V663H339.857V662H355.23V663H370.604V662H385.977V663H401.35V662H416.723V663H432.096V662H447.47V663H462.843V662H478.216V663H493.589V662H508.962V663H516.649C520.542 663 524.323 662.024 527.722 660.262L527.262 659.375C533.553 656.114 538.51 650.037 540.289 642.4L541.263 642.627C542.082 639.114 542.25 635.292 541.609 631.277L541.607 631.267L540.3 623.581L539.314 623.749L536.699 608.376L537.685 608.209L536.378 600.523L536.372 600.49L536.365 600.457L534.515 592.748L533.543 592.981L529.844 577.563L530.816 577.33L528.967 569.621C527.931 565.303 526.638 561.087 525.099 557.006L522.007 548.81L521.071 549.163L514.888 532.771L515.823 532.418L512.732 524.223C512.224 522.878 511.688 521.544 511.124 520.223L510.205 520.615C509.087 517.998 507.859 515.429 506.523 512.917L507.406 512.447C506.731 511.179 506.029 509.925 505.301 508.685L501.201 501.711L500.338 502.218L492.138 488.268L493 487.761L488.915 480.813C487.736 478.494 486.475 476.247 485.136 474.076L484.285 474.601C481.545 470.159 478.477 466.045 475.122 462.314L475.866 461.645C474.127 459.712 472.312 457.879 470.425 456.155L467.975 453.529L467.244 454.211L462.288 448.9L463.019 448.217L460.541 445.562L460.491 445.508L460.432 445.461L457.097 442.81L456.475 443.592L449.804 438.289L450.426 437.506L447.118 434.876C445.877 433.744 444.608 432.661 443.314 431.63L442.691 432.412C440.064 430.32 437.331 428.441 434.509 426.789L435.015 425.926C433.556 425.072 432.074 424.278 430.571 423.544L425.216 420.932L424.778 421.83L414.069 416.605L414.507 415.707L403.798 410.481L403.36 411.38L392.651 406.155L393.089 405.256L387.735 402.644Z" stroke="white" stroke-width="2" stroke-dasharray="15 15"/>
</svg>
